<?xml version="1.0" encoding="iso-8859-1"?>
<!-- Generator: Adobe Illustrator 19.0.0, SVG Export Plug-In . SVG Version: 6.00 Build 0)  -->
<svg version="1.1" id="Capa_1" xmlns="http://www.w3.org/2000/svg" xmlns:xlink="http://www.w3.org/1999/xlink" x="0px" y="0px"
	 viewBox="0 0 508 508" style="enable-background:new 0 0 508 508;" xml:space="preserve">
<g>
	<g>
		<path d="M368.007,295.9C404.607,109.3,254.107,0,254.107,0s-152.2,111.6-114,295.9c-103.8,86-50,212.1-50,212.1
			s13.4-90.3,83-126.3c9.7,18.4,30.3,42.7,30.3,42.7h101.3c0,0,20.1-23,30.3-42.7c67.1,41.1,75.8,99.6,83,126.3
			C418.007,508,471.507,385.2,368.007,295.9z M254.107,22.9c0,0,41.8,43.1,49.5,53.3h-99C212.307,66,254.107,22.9,254.107,22.9z
			 M92.707,446.4c-0.4-4.7-9.6-75.9,51.6-132.7c5.1,18.4,12.1,36.4,21,53.8C133.507,385.9,108.107,413.5,92.707,446.4z
			 M297.107,408.2h-86.1c-75-92.4-79.9-219.2-17.7-315.8h121.4C377.007,189,372.207,315.8,297.107,408.2z M415.407,446.4
			c-15.4-32.9-40.8-60.6-72.6-78.9c8.9-17.4,15.9-35.4,21-53.8C425.807,372.4,415.807,441.8,415.407,446.4z"/>
	</g>
</g>
<g>
	<g>
		<path d="M254.107,124.8c-31.3,0-56.7,25.4-56.7,56.7s25.4,56.7,56.7,56.7c31.3,0,56.7-25.4,56.7-56.7
			C310.807,150.2,285.307,124.8,254.107,124.8z M254.107,222c-22.3,0-40.5-18.2-40.5-40.5s18.2-40.5,40.5-40.5
			c22.3,0,40.5,18.2,40.5,40.5S276.407,222,254.107,222z"/>
	</g>
</g>
<g>
	<g>
		<rect x="246.007" y="440.6" width="16.2" height="48.6"/>
	</g>
</g>
<g>
	<g>
		<rect x="205.507" y="456.8" width="16.2" height="48.6"/>
	</g>
</g>
<g>
	<g>
		<rect x="286.507" y="456.8" width="16.2" height="48.6"/>
	</g>
</g>
<g>
</g>
<g>
</g>
<g>
</g>
<g>
</g>
<g>
</g>
<g>
</g>
<g>
</g>
<g>
</g>
<g>
</g>
<g>
</g>
<g>
</g>
<g>
</g>
<g>
</g>
<g>
</g>
<g>
</g>
</svg>
